<?xml version="1.0" encoding="UTF-8" standalone="no"?>
<svg width="500" height="500" viewBox="0 0 500 500" fill="none" xmlns="http://www.w3.org/2000/svg">
  <path d="M340 10C320 30 300 70 290 90C280 110 260 140 240 170C220 200 210 220 200 240C190 260 180 290 170 320C160 350 150 380 140 410C130 440 120 470 110 490C100 510 90 520 80 530C70 540 60 550 50 560C40 570 30 580 20 590" stroke="#5c1374" stroke-width="20" stroke-linecap="round" stroke-linejoin="round" fill="none"/>
  <path d="M200 200C180 220 160 240 140 260C120 280 100 300 80 320C60 340 40 360 30 380C20 400 10 420 10 440C10 460 20 480 40 500C60 520 80 540 100 520C120 500 140 480 160 460C180 440 200 420 220 400C240 380 260 360 280 340C300 320 320 300 340 280C360 260 380 240 400 220C420 200 440 180 460 160C480 140 500 120 520 100" stroke="#5c1374" stroke-width="20" stroke-linecap="round" stroke-linejoin="round" fill="none"/>
</svg> 